<mxfile host="app.diagrams.net" modified="2023-12-18T21:20:39.575Z" agent="Mozilla/5.0 (Windows NT 10.0; Win64; x64) AppleWebKit/537.36 (KHTML, like Gecko) Chrome/120.0.0.0 Safari/537.36" etag="AYBEHK2iUAyL0G4_tMR1" version="22.1.11" type="onedrive">
  <diagram name="Page-1" id="55a83fd1-7818-8e21-69c5-c3457e3827bb">
    <mxGraphModel dx="1892" dy="770" grid="1" gridSize="10" guides="1" tooltips="1" connect="1" arrows="1" fold="1" page="1" pageScale="1" pageWidth="1100" pageHeight="850" background="none" math="0" shadow="0">
      <root>
        <mxCell id="0" />
        <mxCell id="1" parent="0" />
        <mxCell id="0LWwAxTXV87LXj3AW5T--23" value="" style="rounded=0;whiteSpace=wrap;html=1;" parent="1" vertex="1">
          <mxGeometry x="130" y="950" width="810" height="320" as="geometry" />
        </mxCell>
        <mxCell id="0LWwAxTXV87LXj3AW5T--17" value="" style="shape=ext;double=1;rounded=0;whiteSpace=wrap;html=1;labelPosition=center;verticalLabelPosition=top;align=left;verticalAlign=bottom;fontSize=20;fontStyle=1" parent="1" vertex="1">
          <mxGeometry x="540" y="970" width="363" height="270" as="geometry" />
        </mxCell>
        <mxCell id="69ecfefc5c41e42c-2" value="Internet" style="image;html=1;labelBackgroundColor=#ffffff;image=img/lib/clip_art/networking/Cloud_128x128.png;rounded=1;shadow=0;comic=0;strokeWidth=2;fontSize=22;labelPosition=center;verticalLabelPosition=top;align=center;verticalAlign=bottom;" parent="1" vertex="1">
          <mxGeometry x="480" y="92" width="80" height="80" as="geometry" />
        </mxCell>
        <mxCell id="69ecfefc5c41e42c-19" style="edgeStyle=none;rounded=0;html=1;labelBackgroundColor=none;endArrow=none;strokeWidth=2;fontFamily=Verdana;fontSize=22" parent="1" source="69ecfefc5c41e42c-3" target="69ecfefc5c41e42c-2" edge="1">
          <mxGeometry relative="1" as="geometry" />
        </mxCell>
        <mxCell id="69ecfefc5c41e42c-3" value="Firewall" style="image;html=1;labelBackgroundColor=#ffffff;image=img/lib/clip_art/networking/Firewall_128x128.png;rounded=1;shadow=0;comic=0;strokeWidth=2;fontSize=22;labelPosition=right;verticalLabelPosition=middle;align=left;verticalAlign=middle;" parent="1" vertex="1">
          <mxGeometry x="482" y="242" width="80" height="70" as="geometry" />
        </mxCell>
        <mxCell id="dxCK5NF6PYWlYXXkP_ZU-16" style="edgeStyle=orthogonalEdgeStyle;rounded=0;orthogonalLoop=1;jettySize=auto;html=1;entryX=1;entryY=0.5;entryDx=0;entryDy=0;" parent="1" source="dxCK5NF6PYWlYXXkP_ZU-10" target="dxCK5NF6PYWlYXXkP_ZU-13" edge="1">
          <mxGeometry relative="1" as="geometry">
            <Array as="points">
              <mxPoint x="435" y="806" />
              <mxPoint x="435" y="886" />
            </Array>
          </mxGeometry>
        </mxCell>
        <mxCell id="dxCK5NF6PYWlYXXkP_ZU-19" style="edgeStyle=orthogonalEdgeStyle;rounded=0;orthogonalLoop=1;jettySize=auto;html=1;" parent="1" source="dxCK5NF6PYWlYXXkP_ZU-10" target="dxCK5NF6PYWlYXXkP_ZU-11" edge="1">
          <mxGeometry relative="1" as="geometry" />
        </mxCell>
        <mxCell id="dxCK5NF6PYWlYXXkP_ZU-20" style="edgeStyle=orthogonalEdgeStyle;rounded=0;orthogonalLoop=1;jettySize=auto;html=1;entryX=0;entryY=0.5;entryDx=0;entryDy=0;" parent="1" source="dxCK5NF6PYWlYXXkP_ZU-10" target="dxCK5NF6PYWlYXXkP_ZU-12" edge="1">
          <mxGeometry relative="1" as="geometry">
            <Array as="points">
              <mxPoint x="620" y="806" />
              <mxPoint x="620" y="886" />
            </Array>
          </mxGeometry>
        </mxCell>
        <mxCell id="dxCK5NF6PYWlYXXkP_ZU-111" style="edgeStyle=orthogonalEdgeStyle;rounded=0;orthogonalLoop=1;jettySize=auto;html=1;entryX=1;entryY=0.5;entryDx=0;entryDy=0;" parent="1" source="dxCK5NF6PYWlYXXkP_ZU-10" target="dxCK5NF6PYWlYXXkP_ZU-14" edge="1">
          <mxGeometry relative="1" as="geometry" />
        </mxCell>
        <mxCell id="dxCK5NF6PYWlYXXkP_ZU-10" value="Servidor de Virtualização" style="image;html=1;image=img/lib/clip_art/computers/Server_Rack_128x128.png;fontSize=22;" parent="1" vertex="1">
          <mxGeometry x="472" y="686" width="100" height="120" as="geometry" />
        </mxCell>
        <mxCell id="dxCK5NF6PYWlYXXkP_ZU-11" value="VM" style="image;html=1;image=img/lib/clip_art/computers/Server_128x128.png" parent="1" vertex="1">
          <mxGeometry x="652" y="706" width="80" height="80" as="geometry" />
        </mxCell>
        <mxCell id="dxCK5NF6PYWlYXXkP_ZU-12" value="VM" style="image;html=1;image=img/lib/clip_art/computers/Server_128x128.png" parent="1" vertex="1">
          <mxGeometry x="650" y="846" width="80" height="80" as="geometry" />
        </mxCell>
        <mxCell id="dxCK5NF6PYWlYXXkP_ZU-13" value="VM" style="image;html=1;image=img/lib/clip_art/computers/Server_128x128.png" parent="1" vertex="1">
          <mxGeometry x="320" y="846" width="80" height="80" as="geometry" />
        </mxCell>
        <mxCell id="dxCK5NF6PYWlYXXkP_ZU-14" value="VM" style="image;html=1;image=img/lib/clip_art/computers/Server_128x128.png" parent="1" vertex="1">
          <mxGeometry x="320" y="706" width="80" height="80" as="geometry" />
        </mxCell>
        <mxCell id="dxCK5NF6PYWlYXXkP_ZU-60" value="" style="group" parent="1" vertex="1" connectable="0">
          <mxGeometry x="-750" y="455" width="200" height="190" as="geometry" />
        </mxCell>
        <mxCell id="dxCK5NF6PYWlYXXkP_ZU-54" value="" style="shape=ext;double=1;rounded=0;whiteSpace=wrap;html=1;" parent="dxCK5NF6PYWlYXXkP_ZU-60" vertex="1">
          <mxGeometry width="200" height="190" as="geometry" />
        </mxCell>
        <mxCell id="dxCK5NF6PYWlYXXkP_ZU-55" value="Impressora" style="image;html=1;labelBackgroundColor=#ffffff;image=img/lib/clip_art/computers/Printer_128x128.png;rounded=1;shadow=0;comic=0;strokeWidth=2;fontSize=11;" parent="dxCK5NF6PYWlYXXkP_ZU-60" vertex="1">
          <mxGeometry x="85" y="55" width="40" height="50" as="geometry" />
        </mxCell>
        <mxCell id="dxCK5NF6PYWlYXXkP_ZU-56" value="PC" style="image;html=1;labelBackgroundColor=#ffffff;image=img/lib/clip_art/computers/Workstation_128x128.png;rounded=1;shadow=0;comic=0;strokeWidth=2;fontSize=11;" parent="dxCK5NF6PYWlYXXkP_ZU-60" vertex="1">
          <mxGeometry x="30" y="120" width="30" height="30" as="geometry" />
        </mxCell>
        <mxCell id="dxCK5NF6PYWlYXXkP_ZU-57" value="PC" style="image;html=1;labelBackgroundColor=#ffffff;image=img/lib/clip_art/computers/Workstation_128x128.png;rounded=1;shadow=0;comic=0;strokeWidth=2;fontSize=11;" parent="dxCK5NF6PYWlYXXkP_ZU-60" vertex="1">
          <mxGeometry x="150" y="130" width="30" height="30" as="geometry" />
        </mxCell>
        <mxCell id="dxCK5NF6PYWlYXXkP_ZU-58" value="PC" style="image;html=1;labelBackgroundColor=#ffffff;image=img/lib/clip_art/computers/Workstation_128x128.png;rounded=1;shadow=0;comic=0;strokeWidth=2;fontSize=11;" parent="dxCK5NF6PYWlYXXkP_ZU-60" vertex="1">
          <mxGeometry x="150" y="15" width="30" height="30" as="geometry" />
        </mxCell>
        <mxCell id="dxCK5NF6PYWlYXXkP_ZU-59" value="PC" style="image;html=1;labelBackgroundColor=#ffffff;image=img/lib/clip_art/computers/Workstation_128x128.png;rounded=1;shadow=0;comic=0;strokeWidth=2;fontSize=11;" parent="dxCK5NF6PYWlYXXkP_ZU-60" vertex="1">
          <mxGeometry x="30" y="15" width="30" height="30" as="geometry" />
        </mxCell>
        <mxCell id="dxCK5NF6PYWlYXXkP_ZU-61" value="" style="group" parent="1" vertex="1" connectable="0">
          <mxGeometry x="-440" y="460" width="200" height="190" as="geometry" />
        </mxCell>
        <mxCell id="dxCK5NF6PYWlYXXkP_ZU-42" value="" style="shape=ext;double=1;rounded=0;whiteSpace=wrap;html=1;" parent="dxCK5NF6PYWlYXXkP_ZU-61" vertex="1">
          <mxGeometry width="200" height="190" as="geometry" />
        </mxCell>
        <mxCell id="dxCK5NF6PYWlYXXkP_ZU-43" value="Impressora" style="image;html=1;labelBackgroundColor=#ffffff;image=img/lib/clip_art/computers/Printer_128x128.png;rounded=1;shadow=0;comic=0;strokeWidth=2;fontSize=11;" parent="dxCK5NF6PYWlYXXkP_ZU-61" vertex="1">
          <mxGeometry x="85" y="55" width="40" height="50" as="geometry" />
        </mxCell>
        <mxCell id="dxCK5NF6PYWlYXXkP_ZU-44" value="PC" style="image;html=1;labelBackgroundColor=#ffffff;image=img/lib/clip_art/computers/Workstation_128x128.png;rounded=1;shadow=0;comic=0;strokeWidth=2;fontSize=11;" parent="dxCK5NF6PYWlYXXkP_ZU-61" vertex="1">
          <mxGeometry x="30" y="120" width="30" height="30" as="geometry" />
        </mxCell>
        <mxCell id="dxCK5NF6PYWlYXXkP_ZU-45" value="PC" style="image;html=1;labelBackgroundColor=#ffffff;image=img/lib/clip_art/computers/Workstation_128x128.png;rounded=1;shadow=0;comic=0;strokeWidth=2;fontSize=11;" parent="dxCK5NF6PYWlYXXkP_ZU-61" vertex="1">
          <mxGeometry x="150" y="130" width="30" height="30" as="geometry" />
        </mxCell>
        <mxCell id="dxCK5NF6PYWlYXXkP_ZU-46" value="PC" style="image;html=1;labelBackgroundColor=#ffffff;image=img/lib/clip_art/computers/Workstation_128x128.png;rounded=1;shadow=0;comic=0;strokeWidth=2;fontSize=11;" parent="dxCK5NF6PYWlYXXkP_ZU-61" vertex="1">
          <mxGeometry x="150" y="15" width="30" height="30" as="geometry" />
        </mxCell>
        <mxCell id="dxCK5NF6PYWlYXXkP_ZU-47" value="PC" style="image;html=1;labelBackgroundColor=#ffffff;image=img/lib/clip_art/computers/Workstation_128x128.png;rounded=1;shadow=0;comic=0;strokeWidth=2;fontSize=11;" parent="dxCK5NF6PYWlYXXkP_ZU-61" vertex="1">
          <mxGeometry x="30" y="15" width="30" height="30" as="geometry" />
        </mxCell>
        <mxCell id="dxCK5NF6PYWlYXXkP_ZU-62" value="" style="group" parent="1" vertex="1" connectable="0">
          <mxGeometry x="-440" y="122" width="200" height="190" as="geometry" />
        </mxCell>
        <mxCell id="dxCK5NF6PYWlYXXkP_ZU-32" value="" style="shape=ext;double=1;rounded=0;whiteSpace=wrap;html=1;" parent="dxCK5NF6PYWlYXXkP_ZU-62" vertex="1">
          <mxGeometry width="200" height="190" as="geometry" />
        </mxCell>
        <mxCell id="69ecfefc5c41e42c-6" value="Impressora" style="image;html=1;labelBackgroundColor=#ffffff;image=img/lib/clip_art/computers/Printer_128x128.png;rounded=1;shadow=0;comic=0;strokeWidth=2;fontSize=11;" parent="dxCK5NF6PYWlYXXkP_ZU-62" vertex="1">
          <mxGeometry x="85" y="55" width="40" height="50" as="geometry" />
        </mxCell>
        <mxCell id="dxCK5NF6PYWlYXXkP_ZU-29" value="PC" style="image;html=1;labelBackgroundColor=#ffffff;image=img/lib/clip_art/computers/Workstation_128x128.png;rounded=1;shadow=0;comic=0;strokeWidth=2;fontSize=11;" parent="dxCK5NF6PYWlYXXkP_ZU-62" vertex="1">
          <mxGeometry x="30" y="120" width="30" height="30" as="geometry" />
        </mxCell>
        <mxCell id="dxCK5NF6PYWlYXXkP_ZU-33" value="PC" style="image;html=1;labelBackgroundColor=#ffffff;image=img/lib/clip_art/computers/Workstation_128x128.png;rounded=1;shadow=0;comic=0;strokeWidth=2;fontSize=11;" parent="dxCK5NF6PYWlYXXkP_ZU-62" vertex="1">
          <mxGeometry x="150" y="130" width="30" height="30" as="geometry" />
        </mxCell>
        <mxCell id="dxCK5NF6PYWlYXXkP_ZU-34" value="PC" style="image;html=1;labelBackgroundColor=#ffffff;image=img/lib/clip_art/computers/Workstation_128x128.png;rounded=1;shadow=0;comic=0;strokeWidth=2;fontSize=11;" parent="dxCK5NF6PYWlYXXkP_ZU-62" vertex="1">
          <mxGeometry x="150" y="15" width="30" height="30" as="geometry" />
        </mxCell>
        <mxCell id="dxCK5NF6PYWlYXXkP_ZU-35" value="PC" style="image;html=1;labelBackgroundColor=#ffffff;image=img/lib/clip_art/computers/Workstation_128x128.png;rounded=1;shadow=0;comic=0;strokeWidth=2;fontSize=11;" parent="dxCK5NF6PYWlYXXkP_ZU-62" vertex="1">
          <mxGeometry x="30" y="15" width="30" height="30" as="geometry" />
        </mxCell>
        <mxCell id="dxCK5NF6PYWlYXXkP_ZU-63" value="" style="group" parent="1" vertex="1" connectable="0">
          <mxGeometry x="-750" y="121" width="200" height="190" as="geometry" />
        </mxCell>
        <mxCell id="dxCK5NF6PYWlYXXkP_ZU-48" value="" style="shape=ext;double=1;rounded=0;whiteSpace=wrap;html=1;" parent="dxCK5NF6PYWlYXXkP_ZU-63" vertex="1">
          <mxGeometry width="200" height="190" as="geometry" />
        </mxCell>
        <mxCell id="dxCK5NF6PYWlYXXkP_ZU-49" value="Impressora" style="image;html=1;labelBackgroundColor=#ffffff;image=img/lib/clip_art/computers/Printer_128x128.png;rounded=1;shadow=0;comic=0;strokeWidth=2;fontSize=11;" parent="dxCK5NF6PYWlYXXkP_ZU-63" vertex="1">
          <mxGeometry x="85" y="55" width="40" height="50" as="geometry" />
        </mxCell>
        <mxCell id="dxCK5NF6PYWlYXXkP_ZU-50" value="PC" style="image;html=1;labelBackgroundColor=#ffffff;image=img/lib/clip_art/computers/Workstation_128x128.png;rounded=1;shadow=0;comic=0;strokeWidth=2;fontSize=11;" parent="dxCK5NF6PYWlYXXkP_ZU-63" vertex="1">
          <mxGeometry x="30" y="120" width="30" height="30" as="geometry" />
        </mxCell>
        <mxCell id="dxCK5NF6PYWlYXXkP_ZU-51" value="PC" style="image;html=1;labelBackgroundColor=#ffffff;image=img/lib/clip_art/computers/Workstation_128x128.png;rounded=1;shadow=0;comic=0;strokeWidth=2;fontSize=11;" parent="dxCK5NF6PYWlYXXkP_ZU-63" vertex="1">
          <mxGeometry x="150" y="130" width="30" height="30" as="geometry" />
        </mxCell>
        <mxCell id="dxCK5NF6PYWlYXXkP_ZU-52" value="PC" style="image;html=1;labelBackgroundColor=#ffffff;image=img/lib/clip_art/computers/Workstation_128x128.png;rounded=1;shadow=0;comic=0;strokeWidth=2;fontSize=11;" parent="dxCK5NF6PYWlYXXkP_ZU-63" vertex="1">
          <mxGeometry x="150" y="15" width="30" height="30" as="geometry" />
        </mxCell>
        <mxCell id="dxCK5NF6PYWlYXXkP_ZU-53" value="PC" style="image;html=1;labelBackgroundColor=#ffffff;image=img/lib/clip_art/computers/Workstation_128x128.png;rounded=1;shadow=0;comic=0;strokeWidth=2;fontSize=11;" parent="dxCK5NF6PYWlYXXkP_ZU-63" vertex="1">
          <mxGeometry x="30" y="15" width="30" height="30" as="geometry" />
        </mxCell>
        <mxCell id="dxCK5NF6PYWlYXXkP_ZU-64" value="&lt;font style=&quot;font-size: 20px;&quot;&gt;Patrimônio&lt;/font&gt;" style="image;html=1;image=img/lib/clip_art/people/Suit_Man_128x128.png;labelPosition=center;verticalLabelPosition=top;align=center;verticalAlign=bottom;" parent="1" vertex="1">
          <mxGeometry x="-690" y="390" width="80" height="80" as="geometry" />
        </mxCell>
        <mxCell id="dxCK5NF6PYWlYXXkP_ZU-65" value="Diretores" style="image;html=1;image=img/lib/clip_art/people/Suit_Man_Green_128x128.png;fontSize=20;align=center;verticalAlign=bottom;labelPosition=center;verticalLabelPosition=top;" parent="1" vertex="1">
          <mxGeometry x="-690" y="61" width="80" height="80" as="geometry" />
        </mxCell>
        <mxCell id="dxCK5NF6PYWlYXXkP_ZU-66" value="Financeiro" style="image;html=1;image=img/lib/clip_art/people/Tech_Man_128x128.png;fontSize=20;labelPosition=center;verticalLabelPosition=top;align=center;verticalAlign=bottom;" parent="1" vertex="1">
          <mxGeometry x="-370" y="62" width="80" height="80" as="geometry" />
        </mxCell>
        <mxCell id="dxCK5NF6PYWlYXXkP_ZU-67" value="&lt;font style=&quot;font-size: 20px;&quot;&gt;RH&lt;/font&gt;" style="image;html=1;image=img/lib/clip_art/people/Worker_Woman_128x128.png;labelPosition=center;verticalLabelPosition=top;align=center;verticalAlign=bottom;" parent="1" vertex="1">
          <mxGeometry x="-380" y="400" width="80" height="80" as="geometry" />
        </mxCell>
        <mxCell id="dxCK5NF6PYWlYXXkP_ZU-83" value="" style="shape=ext;double=1;rounded=0;whiteSpace=wrap;html=1;labelPosition=center;verticalLabelPosition=top;align=left;verticalAlign=bottom;fontSize=20;fontStyle=1" parent="1" vertex="1">
          <mxGeometry x="150" y="970" width="363" height="270" as="geometry" />
        </mxCell>
        <mxCell id="dxCK5NF6PYWlYXXkP_ZU-84" value="AD DC" style="image;html=1;image=img/lib/clip_art/computers/Virtual_Application_128x128.png;fontStyle=1;fontSize=14;" parent="1" vertex="1">
          <mxGeometry x="183" y="990" width="42.25" height="39" as="geometry" />
        </mxCell>
        <mxCell id="dxCK5NF6PYWlYXXkP_ZU-110" value="&lt;font style=&quot;&quot; color=&quot;#3399ff&quot;&gt;&lt;b style=&quot;&quot;&gt;&lt;font style=&quot;font-size: 18px;&quot;&gt;&lt;font style=&quot;&quot;&gt;SERVERDC01&lt;br&gt;IP: 192.168.1.10&lt;br&gt;&lt;/font&gt;PRIMARY DC&lt;/font&gt;&lt;br&gt;&lt;/b&gt;&lt;/font&gt;" style="image;aspect=fixed;perimeter=ellipsePerimeter;html=1;align=center;shadow=0;dashed=0;spacingTop=3;image=img/lib/active_directory/windows_server_2.svg;" parent="1" vertex="1">
          <mxGeometry x="384" y="993" width="69.6" height="87" as="geometry" />
        </mxCell>
        <mxCell id="dxCK5NF6PYWlYXXkP_ZU-114" style="edgeStyle=orthogonalEdgeStyle;rounded=0;orthogonalLoop=1;jettySize=auto;html=1;entryX=0.5;entryY=1;entryDx=0;entryDy=0;" parent="1" source="dxCK5NF6PYWlYXXkP_ZU-113" target="69ecfefc5c41e42c-3" edge="1">
          <mxGeometry relative="1" as="geometry" />
        </mxCell>
        <mxCell id="dxCK5NF6PYWlYXXkP_ZU-115" style="edgeStyle=orthogonalEdgeStyle;rounded=0;orthogonalLoop=1;jettySize=auto;html=1;entryX=0.5;entryY=0;entryDx=0;entryDy=0;" parent="1" source="dxCK5NF6PYWlYXXkP_ZU-113" target="dxCK5NF6PYWlYXXkP_ZU-10" edge="1">
          <mxGeometry relative="1" as="geometry" />
        </mxCell>
        <mxCell id="dxCK5NF6PYWlYXXkP_ZU-113" value="&lt;font color=&quot;#000000&quot; style=&quot;font-size: 22px;&quot;&gt;Rack Distribuição&lt;/font&gt;" style="fontColor=#0066CC;verticalAlign=top;verticalLabelPosition=bottom;labelPosition=center;align=center;html=1;outlineConnect=0;fillColor=#CCCCCC;strokeColor=#6881B3;gradientColor=none;gradientDirection=north;strokeWidth=2;shape=mxgraph.networks.rack;" parent="1" vertex="1">
          <mxGeometry x="474" y="400" width="95" height="170" as="geometry" />
        </mxCell>
        <mxCell id="0LWwAxTXV87LXj3AW5T--3" value="DNS" style="image;html=1;image=img/lib/clip_art/computers/Virtual_Application_128x128.png;fontStyle=1;fontSize=14;" parent="1" vertex="1">
          <mxGeometry x="243" y="990" width="42.25" height="39" as="geometry" />
        </mxCell>
        <mxCell id="0LWwAxTXV87LXj3AW5T--7" value="&lt;font style=&quot;&quot; color=&quot;#3399ff&quot;&gt;&lt;b style=&quot;&quot;&gt;&lt;font style=&quot;font-size: 18px;&quot;&gt;&lt;font style=&quot;&quot;&gt;SERVERDC02&lt;br&gt;IP: 192.168.1.11&lt;br&gt;&lt;/font&gt;SECONDARY DC&lt;/font&gt;&lt;br&gt;&lt;/b&gt;&lt;/font&gt;" style="image;aspect=fixed;perimeter=ellipsePerimeter;html=1;align=center;shadow=0;dashed=0;spacingTop=3;image=img/lib/active_directory/windows_server_2.svg;" parent="1" vertex="1">
          <mxGeometry x="593.0000000000001" y="993" width="69.6" height="87" as="geometry" />
        </mxCell>
        <mxCell id="0LWwAxTXV87LXj3AW5T--18" value="AD DC" style="image;html=1;image=img/lib/clip_art/computers/Virtual_Application_128x128.png;fontStyle=1;fontSize=14;" parent="1" vertex="1">
          <mxGeometry x="758.75" y="993" width="42.25" height="39" as="geometry" />
        </mxCell>
        <mxCell id="0LWwAxTXV87LXj3AW5T--19" value="DNS" style="image;html=1;image=img/lib/clip_art/computers/Virtual_Application_128x128.png;fontStyle=1;fontSize=14;" parent="1" vertex="1">
          <mxGeometry x="818.75" y="993" width="42.25" height="39" as="geometry" />
        </mxCell>
        <mxCell id="0LWwAxTXV87LXj3AW5T--24" style="edgeStyle=orthogonalEdgeStyle;rounded=0;orthogonalLoop=1;jettySize=auto;html=1;entryX=0.485;entryY=-0.009;entryDx=0;entryDy=0;entryPerimeter=0;" parent="1" source="dxCK5NF6PYWlYXXkP_ZU-10" target="0LWwAxTXV87LXj3AW5T--23" edge="1">
          <mxGeometry relative="1" as="geometry" />
        </mxCell>
      </root>
    </mxGraphModel>
  </diagram>
</mxfile>
